# xmcd
#
# Track frame offsets:
# 150
# 12525
# 23967
# 37834
# 51273
# 67370
# 82343
# 98108
# 113185
# 127010
# 141589
# 152533
# 162711
# 171932
# 185891
# 197067
# 210757
# 222031
# 235037
# 246791
# 260728
#
# Disc length: 3656 seconds
#
# Revision: 1
# Processed by: cddbd v1.4PL0 Copyright (c) Steve Scherf et al.
# Submitted via: CedeCatalogueitor 2.5 http://usuarios.lycos.es/kakasboy
#
DISCID=3f0e4615
DTITLE=Fevo - Festival De La Canción Vocacional
DYEAR=1999
DGENRE=Godspell
TTITLE0=A Ese Padre - Parroquia De Sta María (Pola De Laviana)
TTITLE1=Se Que Estás Aquí - Colegio Claretiano "Mª Inmaculada" (Pola De Laviana)
TTITLE2=Me Pongo En Tus Manos - Parroquia Ntra. Sra. De Las Mareas (Avilés)
TTITLE3=Hoy Quiero Escucharte - Parroquia Ntra. Sra. Del Carmen (Salinas)
TTITLE4=Ayudame Señor - Coro Parroquial De Tapia
TTITLE5=Nos Diste A Tu Hijo - JMV, Patronato San José (Gijón)
TTITLE6=Ven Conmigo Y Veras - Grupo De Jovenes De La Parroquia Del Carmen (Mieres)
TTITLE7=Miralo Detras De Ti - Coro Nazaret (Oviedo)
TTITLE8=Porque Tu Eres Mi Padre - Coro Parroquial De Posada De Llanes
TTITLE9=Manos De Padre, Manos De Amor - Coros De Las Parroquias De Vibaño Y Nueva De Llanes
TTITLE10=Padre, Me Pongo En Tus Manos - Jovenes Amigos De Los Pueblos (Delegación Diocesana De Misiones)
TTITLE11=Mi Papi - Seminario Metropolitano
TTITLE12=Dime - Coro Joven De La Parroquia De Sta. María (Noreña)
TTITLE13=La Cigüeña - Coro Parroquial De Pola De Lena
TTITLE14=En Tu Pecho - Misa De Doce (Parroquia De Ntra. Sra. De Begoña (Gijón))
TTITLE15=Déjate Llevar - Colegio Teresianas COU
TTITLE16=Sobre Las Olas - Colegio Teresianas BUP
TTITLE17=Tú, Mi Guia Y Mi Luz - Coro De La Parroquia De Sta. María (La Fresneda)
TTITLE18=Entre Tus Brazos - Coro De Jovenes De La Parroquia De La Inmaculada (Gijón)
TTITLE19=Voy Buscando Por La Vida - JUMAVI Colegio Luisa De Marillac (Miranda - Aviles)
TTITLE20=Mi Mundo En Tu Mano - Coro Diocesano La Asunción - Seminario (Oviedo)
EXTD=Asturias
EXTT0=
EXTT1=
EXTT2=
EXTT3=
EXTT4=
EXTT5=
EXTT6=
EXTT7=
EXTT8=
EXTT9=
EXTT10=
EXTT11=
EXTT12=
EXTT13=
EXTT14=
EXTT15=
EXTT16=
EXTT17=
EXTT18=
EXTT19=
EXTT20=
PLAYORDER=
